STARTFONT 2.1
FONT -FontForge-Anton-Book-R-Normal--40-380-75-75-P-174-ISO10646-1
SIZE 38 75 75
FONTBOUNDINGBOX 41 46 0 -7
COMMENT "Generated by fontforge, http://fontforge.sourceforge.net"
COMMENT "Copyright 2011 The Anton Project Authors"
STARTPROPERTIES 39
FOUNDRY "FontForge"
FAMILY_NAME "Anton"
WEIGHT_NAME "Book"
SLANT "R"
SETWIDTH_NAME "Normal"
ADD_STYLE_NAME ""
PIXEL_SIZE 40
POINT_SIZE 380
RESOLUTION_X 75
RESOLUTION_Y 75
SPACING "P"
AVERAGE_WIDTH 174
CHARSET_REGISTRY "ISO10646"
CHARSET_ENCODING "1"
FONTNAME_REGISTRY ""
CHARSET_COLLECTIONS "ISO8859-2 ISO8859-9 ISO8859-4 ISO10646-1"
FONT_NAME "Anton-Regular"
FACE_NAME "Anton Regular"
COPYRIGHT "Copyright 2011 The Anton Project Authors"
FONT_VERSION "2.000"
FONT_ASCENT 32
FONT_DESCENT 8
UNDERLINE_POSITION -6
UNDERLINE_THICKNESS 2
X_HEIGHT 29
CAP_HEIGHT 34
RAW_ASCENT 800
RAW_DESCENT 200
NORM_SPACE 9
RELATIVE_WEIGHT 40
RELATIVE_SETWIDTH 50
SUPERSCRIPT_X 0
SUPERSCRIPT_Y 14
SUPERSCRIPT_SIZE 24
SUBSCRIPT_X 0
SUBSCRIPT_Y 3
SUBSCRIPT_SIZE 24
AVG_LOWERCASE_WIDTH 374
AVG_UPPERCASE_WIDTH 374
ENDPROPERTIES
CHARS 95
STARTCHAR space
ENCODING 32
SWIDTH 234 0
DWIDTH 9 0
BBX 1 1 0 0
BITMAP
00
ENDCHAR
STARTCHAR exclam
ENCODING 33
SWIDTH 229 0
DWIDTH 9 0
BBX 7 35 1 0
BITMAP
FE
FE
FE
FE
FE
FE
FE
FE
7E
7E
7E
7C
7C
7C
7C
7C
7C
7C
7C
7C
7C
7C
7C
7C
7C
00
00
00
00
00
FE
FE
FE
FE
FE
ENDCHAR
STARTCHAR quotedbl
ENCODING 34
SWIDTH 429 0
DWIDTH 17 0
BBX 15 13 1 22
BITMAP
FEFE
FE7E
FC7E
FC7E
FC7E
7C7E
7C7E
7C3C
7C3C
7C3C
783C
383C
383C
ENDCHAR
STARTCHAR numbersign
ENCODING 35
SWIDTH 546 0
DWIDTH 22 0
BBX 20 32 1 0
BITMAP
03E1F0
03E3F0
07E3F0
07E3F0
07E3E0
07C3E0
07C7E0
0FC7E0
0FC7E0
0FC7C0
7FFFF0
7FFFF0
7FFFF0
7FFFF0
7FFFF0
1F8F80
1F1F80
FFFFE0
FFFFE0
FFFFE0
FFFFE0
FFFFE0
3E3F00
7E3F00
7E3F00
7E3E00
7C3E00
7C7E00
FC7E00
FC7E00
FC7C00
F87C00
ENDCHAR
STARTCHAR dollar
ENCODING 36
SWIDTH 462 0
DWIDTH 18 0
BBX 17 35 1 -2
BITMAP
01C000
01C000
03E000
1FF800
3FFE00
7FFE00
7FFF00
FFFF00
FE7F00
FC3F80
FE3F80
FE0000
7F0000
7F8000
3FC000
3FE000
1FF000
0FF800
07FC00
03FE00
01FF00
00FF00
FC7F80
FC3F80
FE3F80
FE7F80
FFFF80
FFFF00
7FFF00
7FFE00
3FFC00
0FF000
01C000
01C000
01C000
ENDCHAR
STARTCHAR percent
ENCODING 37
SWIDTH 1057 0
DWIDTH 42 0
BBX 40 35 1 0
BITMAP
0FE003F800
3FF003F000
7FF803F000
7FFC07F000
FFFE07E000
FC7E07E000
FC7E0FE000
FC7E0FE000
FC7E0FC000
FC7E0FC000
FC7E1FC000
FC7E1F83F0
FC7E1F8FFC
FC7E3F9FFE
FC7E3F3FFE
FC7E3F3FFF
FC7E7F7E3F
FC7E7E7E1F
FC7E7E7E1F
FFFE7E7E1F
7FFCFE7E1F
7FFCFC7E1F
3FF8FC7E1F
1FE1FC7E1F
0001F87E1F
0001F87E1F
0003F87E1F
0003F07E1F
0003F07E3F
0003F07FFF
0007F03FFF
0007E03FFE
0007E01FFE
000FE00FFC
000FC003F0
ENDCHAR
STARTCHAR ampersand
ENCODING 38
SWIDTH 505 0
DWIDTH 20 0
BBX 19 32 1 0
BITMAP
03F000
07FC00
0FFE00
1FFE00
1FFF00
3FFF00
3F9F00
3F9F00
1F9F00
1FBE00
1FFE00
1FFC00
0FF800
0FF100
1FE380
3FF7C0
3FF7E0
7FFFC0
FFFF80
FDFF00
FDFF00
FCFE00
FCFE00
FCFE00
FC7E00
FC7F00
FFFF00
FFFF80
7FFF80
7FFF80
3FDFC0
1F1FC0
ENDCHAR
STARTCHAR quotesingle
ENCODING 39
SWIDTH 214 0
DWIDTH 9 0
BBX 7 13 1 22
BITMAP
FE
FE
FC
FC
FC
7C
7C
7C
7C
7C
78
38
38
ENDCHAR
STARTCHAR parenleft
ENCODING 40
SWIDTH 291 0
DWIDTH 12 0
BBX 10 35 1 0
BITMAP
03C0
0FC0
1FC0
3FC0
7FC0
7FC0
7F00
FF00
FE00
FE00
FE00
FE00
FE00
FE00
FE00
FE00
FE00
FE00
FE00
FE00
FE00
FE00
FE00
FE00
FE00
FE00
FE00
FE00
7F00
7FC0
3FC0
3FC0
1FC0
07C0
01C0
ENDCHAR
STARTCHAR parenright
ENCODING 41
SWIDTH 291 0
DWIDTH 12 0
BBX 10 35 1 0
BITMAP
E000
FC00
FE00
FF00
FF00
FF80
7F80
3F80
3F80
3FC0
3FC0
3FC0
3FC0
3FC0
3FC0
3FC0
3FC0
3FC0
3FC0
3FC0
3FC0
3FC0
3FC0
3FC0
3FC0
3FC0
3F80
3F80
7F80
FF80
FF00
FE00
FC00
F800
E000
ENDCHAR
STARTCHAR asterisk
ENCODING 42
SWIDTH 452 0
DWIDTH 18 0
BBX 16 17 1 15
BITMAP
03C0
03C0
43C2
63C6
7BDE
FDFF
FFFF
1FFC
07E0
1FF8
FFFF
FDFF
7BDE
73C6
23C2
03C0
03C0
ENDCHAR
STARTCHAR plus
ENCODING 43
SWIDTH 355 0
DWIDTH 14 0
BBX 12 13 1 6
BITMAP
0F00
0F00
0F00
0F00
FFF0
FFF0
FFF0
FFF0
FFF0
0F00
0F00
0F00
0F00
ENDCHAR
STARTCHAR comma
ENCODING 44
SWIDTH 236 0
DWIDTH 9 0
BBX 7 10 1 -5
BITMAP
FE
FE
FE
FE
FE
3E
3E
3C
3C
7C
ENDCHAR
STARTCHAR hyphen
ENCODING 45
SWIDTH 311 0
DWIDTH 12 0
BBX 10 5 1 10
BITMAP
FFC0
FFC0
FFC0
FFC0
FFC0
ENDCHAR
STARTCHAR period
ENCODING 46
SWIDTH 229 0
DWIDTH 9 0
BBX 7 5 1 0
BITMAP
FE
FE
FE
FE
FE
ENDCHAR
STARTCHAR slash
ENCODING 47
SWIDTH 405 0
DWIDTH 16 0
BBX 15 35 1 0
BITMAP
01FE
01FC
01FC
01FC
01FC
03F8
03F8
03F8
03F8
07F8
07F0
07F0
07F0
0FF0
0FE0
0FE0
0FE0
0FE0
1FC0
1FC0
1FC0
1FC0
3FC0
3F80
3F80
3F80
7F80
7F00
7F00
7F00
7F00
FE00
FE00
FE00
FE00
ENDCHAR
STARTCHAR zero
ENCODING 48
SWIDTH 494 0
DWIDTH 20 0
BBX 18 35 1 0
BITMAP
07F000
1FFC00
3FFF00
7FFF00
7FFF80
FFFF80
FF3FC0
FE3FC0
FE1FC0
FE1FC0
FE1FC0
FE1FC0
FE1FC0
FE1FC0
FE1FC0
FE1FC0
FE1FC0
FE1FC0
FE1FC0
FE1FC0
FE1FC0
FE1FC0
FE1FC0
FE1FC0
FE1FC0
FE1FC0
FE1FC0
FE3FC0
FF3FC0
FFFF80
7FFF80
7FFF00
3FFF00
1FFE00
07F000
ENDCHAR
STARTCHAR one
ENCODING 49
SWIDTH 331 0
DWIDTH 13 0
BBX 12 35 0 0
BITMAP
03F0
03F0
07F0
1FF0
FFF0
FFF0
FFF0
FFF0
F7F0
E7F0
07F0
07F0
07F0
07F0
07F0
07F0
07F0
07F0
07F0
07F0
07F0
07F0
07F0
07F0
07F0
07F0
07F0
07F0
07F0
07F0
07F0
07F0
07F0
07F0
07F0
ENDCHAR
STARTCHAR two
ENCODING 50
SWIDTH 494 0
DWIDTH 20 0
BBX 18 35 1 0
BITMAP
03F800
0FFE00
3FFF00
3FFF80
7FFF80
7FFFC0
7FFFC0
FF3FC0
FF1FC0
FE1FC0
FE1FC0
FE1FC0
FE1FC0
FE3FC0
003F80
003F80
007F80
007F00
00FF00
01FE00
01FC00
03F800
07F800
0FF000
1FE000
1FC000
3FC000
3F8000
7FFFC0
7FFFC0
FFFFC0
FFFFC0
FFFFC0
FFFFC0
FFFFC0
ENDCHAR
STARTCHAR three
ENCODING 51
SWIDTH 494 0
DWIDTH 20 0
BBX 18 35 1 0
BITMAP
07F000
1FFC00
3FFF00
7FFF00
7FFF80
FFFF80
FF3F80
FE3FC0
FE1FC0
FE1FC0
003FC0
003FC0
007F80
01FF80
01FF00
01FE00
01FE00
01FF00
01FF80
007F80
003FC0
003FC0
FE1FC0
FE1FC0
FE1FC0
FE1FC0
FE3FC0
FE3FC0
FE3F80
FFFF80
7FFF80
7FFF00
3FFE00
1FFC00
07F000
ENDCHAR
STARTCHAR four
ENCODING 52
SWIDTH 494 0
DWIDTH 20 0
BBX 19 35 0 0
BITMAP
01FFC0
03FFC0
03FFC0
03FFC0
03FFC0
07FFC0
07DFC0
07DFC0
07DFC0
0FDFC0
0FDFC0
0F9FC0
0F9FC0
1F9FC0
1F9FC0
1F1FC0
3F1FC0
3F1FC0
3F1FC0
3F1FC0
7E1FC0
7E1FC0
7E1FC0
7E1FC0
FFFFE0
FFFFE0
FFFFE0
FFFFE0
FFFFE0
001FC0
001FC0
001FC0
001FC0
001FC0
001FC0
ENDCHAR
STARTCHAR five
ENCODING 53
SWIDTH 494 0
DWIDTH 20 0
BBX 18 35 1 0
BITMAP
7FFF80
7FFF80
7FFF80
7FFF80
7FFF80
7FFF80
7FFF80
7E0000
7E0000
7E0000
7EFE00
7FFF00
7FFF00
7FFF80
7FFF80
7F3F80
7E3FC0
7E1FC0
001FC0
001FC0
001FC0
001FC0
FE1FC0
FE1FC0
FE1FC0
FE1FC0
FE1FC0
FE1FC0
FF3FC0
FFFF80
7FFF80
7FFF00
3FFF00
1FFE00
07F800
ENDCHAR
STARTCHAR six
ENCODING 54
SWIDTH 494 0
DWIDTH 20 0
BBX 18 35 1 0
BITMAP
03F800
0FFE00
3FFF00
3FFF80
7FFF80
7FFFC0
7F1FC0
FE1FC0
FE1FC0
FE1FC0
FE0000
FE0000
FE0000
FE7C00
FEFF00
FFFF80
FFFF80
FFFFC0
FFFFC0
FF3FC0
FE1FC0
FE1FC0
FE1FC0
FE1FC0
FE1FC0
FE1FC0
FE1FC0
FE1FC0
FF3FC0
7FFF80
7FFF80
7FFF80
3FFF00
1FFE00
07F800
ENDCHAR
STARTCHAR seven
ENCODING 55
SWIDTH 494 0
DWIDTH 20 0
BBX 18 35 1 0
BITMAP
FFFFC0
FFFFC0
FFFFC0
FFFFC0
FFFFC0
FFFFC0
003F80
003F80
007F80
007F80
00FF00
00FF00
00FE00
01FE00
01FC00
01FC00
03FC00
03F800
07F800
07F800
07F000
0FF000
0FF000
0FE000
0FE000
1FE000
1FE000
1FE000
1FC000
3FC000
3FC000
3FC000
3FC000
3FC000
3FC000
ENDCHAR
STARTCHAR eight
ENCODING 56
SWIDTH 494 0
DWIDTH 20 0
BBX 18 35 1 0
BITMAP
07F800
1FFE00
3FFF00
7FFF80
7FFF80
FFFF80
FF3FC0
FE3FC0
FE1FC0
FE1FC0
FE3FC0
FF3FC0
FFFF80
7FFF80
3FFF00
3FFF00
7FFF80
FFFF80
FF3F80
FE3FC0
FE1FC0
FE1FC0
FE1FC0
FE1FC0
FE1FC0
FE1FC0
FE3FC0
FF3FC0
FFFF80
7FFF80
7FFF80
7FFF00
3FFF00
1FFC00
07F000
ENDCHAR
STARTCHAR nine
ENCODING 57
SWIDTH 504 0
DWIDTH 20 0
BBX 18 35 1 0
BITMAP
07F800
1FFE00
3FFF00
3FFF80
7FFF80
7FFFC0
FF3FC0
FF1FC0
FF1FC0
FF1FC0
FF1FC0
FF1FC0
FF1FC0
FF1FC0
FF3FC0
FFFFC0
7FFFC0
7FFFC0
7FFFC0
3FFFC0
0F9FC0
001FC0
001FC0
001FC0
7E1FC0
7E1FC0
7E1FC0
7E1FC0
7F3FC0
7FFF80
7FFF80
7FFF80
3FFF00
1FFE00
07F800
ENDCHAR
STARTCHAR colon
ENCODING 58
SWIDTH 242 0
DWIDTH 10 0
BBX 7 20 1 5
BITMAP
FE
FE
FE
FE
FE
00
00
00
00
00
00
00
00
00
00
FE
FE
FE
FE
FE
ENDCHAR
STARTCHAR semicolon
ENCODING 59
SWIDTH 245 0
DWIDTH 10 0
BBX 8 25 1 0
BITMAP
FE
FE
FE
FE
FE
00
00
00
00
00
00
00
00
00
00
FF
FF
FF
FF
FF
1E
3E
3E
3C
7C
ENDCHAR
STARTCHAR less
ENCODING 60
SWIDTH 321 0
DWIDTH 13 0
BBX 11 21 1 4
BITMAP
0060
00E0
03E0
0FE0
1FE0
7FE0
FFE0
FF80
FE00
FC00
F000
FC00
FF00
FFC0
FFE0
3FE0
1FE0
07E0
01E0
00E0
0020
ENDCHAR
STARTCHAR equal
ENCODING 61
SWIDTH 311 0
DWIDTH 12 0
BBX 10 12 1 10
BITMAP
FFC0
FFC0
FFC0
FFC0
0000
0000
0000
FFC0
FFC0
FFC0
FFC0
FFC0
ENDCHAR
STARTCHAR greater
ENCODING 62
SWIDTH 321 0
DWIDTH 13 0
BBX 11 21 1 4
BITMAP
C000
E000
F800
FE00
FF00
FFC0
FFE0
3FE0
1FE0
07E0
03E0
07E0
1FE0
7FE0
FFE0
FF80
FF00
FC00
F000
E000
8000
ENDCHAR
STARTCHAR question
ENCODING 63
SWIDTH 492 0
DWIDTH 20 0
BBX 18 35 1 0
BITMAP
07F800
1FFE00
3FFF00
7FFF80
FFFF80
FFFF80
FF3FC0
FE1FC0
FE1FC0
FE1FC0
FE1FC0
FE1FC0
FE3FC0
003FC0
003FC0
007FC0
007F80
01FF80
7FFF00
7FFF00
7FFE00
7FF800
7FC000
7F0000
7F0000
7F0000
000000
000000
000000
000000
7F0000
7F0000
7F0000
7F0000
7F0000
ENDCHAR
STARTCHAR at
ENCODING 64
SWIDTH 864 0
DWIDTH 35 0
BBX 32 39 1 -4
BITMAP
0007F800
003FFF00
00FFFFC0
01FFFFE0
07FFFFF0
07FC07F8
0FF001FC
1FC0007C
1F80007E
3F00003E
3F0F9F3E
7E1FDF1F
7E3FFF1F
7E3FFF1F
7C3F3F1F
7C7F3F0F
FC7E3F0F
FC7E3F0F
FC7E3F0F
FC7E3F0F
FC7E3F0F
FC7E3F1F
FC7E3F1F
FC7E3F1F
FC7FFF1F
7C3FFFFE
7E3FDFFE
7E1FCFFC
7F1FCFF8
3F0783F0
3F800000
1FC00000
1FE00000
0FFC0000
07FFFE00
03FFFE00
01FFFE00
007FFE00
000FFC00
ENDCHAR
STARTCHAR A
ENCODING 65
SWIDTH 485 0
DWIDTH 19 0
BBX 18 35 1 0
BITMAP
1FFE00
1FFE00
1FFE00
1FFE00
3FFE00
3FFE00
3F7E00
3F7E00
3F7E00
3F7E00
3F7F00
3F7F00
3F7F00
3F7F00
3F7F00
7F3F00
7F3F00
7F3F00
7F3F00
7F3F00
7E3F00
7E3F80
7E3F80
7E3F80
7FFF80
FFFF80
FFFF80
FFFF80
FFFF80
FE1F80
FE1F80
FE1FC0
FC1FC0
FC1FC0
FC1FC0
ENDCHAR
STARTCHAR B
ENCODING 66
SWIDTH 479 0
DWIDTH 19 0
BBX 16 35 2 0
BITMAP
FFF0
FFFC
FFFE
FFFE
FFFF
FCFF
FC7F
FC7F
FC7F
FC7F
FC7F
FC7F
FC7F
FCFE
FFFE
FFF8
FFFC
FFFE
FFFF
FC7F
FC7F
FC3F
FC3F
FC3F
FC3F
FC3F
FC3F
FC7F
FC7F
FFFF
FFFF
FFFE
FFFE
FFFC
FFF0
ENDCHAR
STARTCHAR C
ENCODING 67
SWIDTH 474 0
DWIDTH 19 0
BBX 17 35 1 0
BITMAP
07F000
1FFC00
3FFE00
3FFF00
7FFF00
7FFF80
7F3F80
FE3F80
FE3F80
FE3F80
FE3F80
FE3F80
FE3F80
FE3F80
FE0000
FE0000
FE0000
FE0000
FE0000
FE0000
FE3F80
FE3F80
FE3F80
FE3F80
FE3F80
FE3F80
FE3F80
FE3F80
FF3F80
7FFF80
7FFF80
3FFF00
3FFE00
1FFC00
07F000
ENDCHAR
STARTCHAR D
ENCODING 68
SWIDTH 493 0
DWIDTH 20 0
BBX 16 35 2 0
BITMAP
FFF0
FFFC
FFFE
FFFE
FFFF
FFFF
FC7F
FC7F
FC7F
FC3F
FC3F
FC3F
FC3F
FC3F
FC3F
FC3F
FC3F
FC3F
FC3F
FC3F
FC3F
FC3F
FC3F
FC3F
FC3F
FC3F
FC3F
FC7F
FC7F
FFFF
FFFF
FFFE
FFFE
FFFC
FFF0
ENDCHAR
STARTCHAR E
ENCODING 69
SWIDTH 412 0
DWIDTH 16 0
BBX 14 35 2 0
BITMAP
FFF8
FFF8
FFF8
FFF8
FFF8
FFF8
FFF8
FE00
FE00
FE00
FE00
FE00
FE00
FFF8
FFF8
FFF8
FFF8
FFF8
FFF8
FFF8
FE00
FE00
FE00
FE00
FE00
FE00
FE00
FE00
FFFC
FFFC
FFFC
FFFC
FFFC
FFFC
FFFC
ENDCHAR
STARTCHAR F
ENCODING 70
SWIDTH 399 0
DWIDTH 16 0
BBX 13 35 2 0
BITMAP
FFF8
FFF8
FFF8
FFF8
FFF8
FFF8
FFF8
FC00
FC00
FC00
FC00
FC00
FFF8
FFF8
FFF8
FFF8
FFF8
FFF8
FFF8
FC00
FC00
FC00
FC00
FC00
FC00
FC00
FC00
FC00
FC00
FC00
FC00
FC00
FC00
FC00
FC00
ENDCHAR
STARTCHAR G
ENCODING 71
SWIDTH 485 0
DWIDTH 19 0
BBX 17 35 1 0
BITMAP
07F000
1FFC00
3FFE00
3FFF00
7FFF00
7FFF80
7F3F80
FE3F80
FE1F80
FE1F80
FE1F80
FE1F80
FE0000
FE0000
FE0000
FE7F80
FE7F80
FE7F80
FE7F80
FE7F80
FE1F80
FE1F80
FE1F80
FE1F80
FE1F80
FE1F80
FE1F80
FE3F80
7F3F80
7FFF80
7FFF80
3FFF80
3FFF80
1FF380
07C380
ENDCHAR
STARTCHAR H
ENCODING 72
SWIDTH 499 0
DWIDTH 20 0
BBX 16 35 2 0
BITMAP
FC3F
FC3F
FC3F
FC3F
FC3F
FC3F
FC3F
FC3F
FC3F
FC3F
FC3F
FC3F
FFFF
FFFF
FFFF
FFFF
FFFF
FFFF
FFFF
FC3F
FC3F
FC3F
FC3F
FC3F
FC3F
FC3F
FC3F
FC3F
FC3F
FC3F
FC3F
FC3F
FC3F
FC3F
FC3F
ENDCHAR
STARTCHAR I
ENCODING 73
SWIDTH 227 0
DWIDTH 9 0
BBX 7 35 1 0
BITMAP
FE
FE
FE
FE
FE
FE
FE
FE
FE
FE
FE
FE
FE
FE
FE
FE
FE
FE
FE
FE
FE
FE
FE
FE
FE
FE
FE
FE
FE
FE
FE
FE
FE
FE
FE
ENDCHAR
STARTCHAR J
ENCODING 74
SWIDTH 466 0
DWIDTH 19 0
BBX 17 35 1 0
BITMAP
003F80
003F80
003F80
003F80
003F80
003F80
003F80
003F80
003F80
003F80
003F80
003F80
003F80
003F80
003F80
003F80
003F80
003F80
003F80
FE3F80
FE3F80
FE3F80
FE3F80
FE3F80
FE3F80
FE3F80
FE3F80
FE3F00
FE7F00
FFFF00
FFFF00
7FFE00
3FFC00
1FF800
07E000
ENDCHAR
STARTCHAR K
ENCODING 75
SWIDTH 472 0
DWIDTH 19 0
BBX 17 35 2 0
BITMAP
FC7F00
FC7F00
FC7F00
FC7F00
FCFE00
FCFE00
FCFE00
FCFE00
FCFC00
FDFC00
FDFC00
FDFC00
FDF800
FFF800
FFF800
FFF800
FFF800
FFF800
FFF800
FDF800
FDFC00
FDFC00
FDFC00
FCFC00
FCFE00
FCFE00
FCFE00
FCFE00
FC7F00
FC7F00
FC7F00
FC7F00
FC3F80
FC3F80
FC3F80
ENDCHAR
STARTCHAR L
ENCODING 76
SWIDTH 397 0
DWIDTH 16 0
BBX 13 35 2 0
BITMAP
FC00
FC00
FC00
FC00
FC00
FC00
FC00
FC00
FC00
FC00
FC00
FC00
FC00
FC00
FC00
FC00
FC00
FC00
FC00
FC00
FC00
FC00
FC00
FC00
FC00
FC00
FC00
FC00
FC00
FC00
FFF8
FFF8
FFF8
FFF8
FFF8
ENDCHAR
STARTCHAR M
ENCODING 77
SWIDTH 746 0
DWIDTH 30 0
BBX 26 35 2 0
BITMAP
FFC0FFC0
FFC0FFC0
FFC1FFC0
FFC1FFC0
FFE1FFC0
FFE1FFC0
FFE1FFC0
FFE1FFC0
FFE1FFC0
FFE3FFC0
FFE3FFC0
FFF3FFC0
FFF3FFC0
FFF3EFC0
FFF3EFC0
FDF3EFC0
FDF3EFC0
FDF7EFC0
FDF7EFC0
FDFFEFC0
FDFFCFC0
FCFFCFC0
FCFFCFC0
FCFFCFC0
FCFFCFC0
FCFFCFC0
FC7F8FC0
FC7F8FC0
FC7F8FC0
FC7F8FC0
FC7F8FC0
FC7F8FC0
FC3F0FC0
FC3F0FC0
FC3F0FC0
ENDCHAR
STARTCHAR N
ENCODING 78
SWIDTH 498 0
DWIDTH 20 0
BBX 16 35 2 0
BITMAP
FE3F
FE3F
FE3F
FE3F
FE3F
FF3F
FF3F
FF3F
FF3F
FF3F
FFBF
FFBF
FFBF
FFBF
FFBF
FFFF
FFFF
FFFF
FFFF
FDFF
FDFF
FDFF
FDFF
FDFF
FCFF
FCFF
FCFF
FCFF
FCFF
FC7F
FC7F
FC7F
FC7F
FC7F
FC3F
ENDCHAR
STARTCHAR O
ENCODING 79
SWIDTH 486 0
DWIDTH 19 0
BBX 17 35 1 0
BITMAP
07F000
1FFC00
3FFE00
7FFF00
7FFF00
7FFF80
FF3F80
FE3F80
FE3F80
FE3F80
FE3F80
FE3F80
FE3F80
FE3F80
FE3F80
FE3F80
FE3F80
FE3F80
FE3F80
FE3F80
FE3F80
FE3F80
FE3F80
FE3F80
FE3F80
FE3F80
FE3F80
FE3F80
7F3F80
7FFF80
7FFF00
3FFF00
3FFE00
1FFC00
03F000
ENDCHAR
STARTCHAR P
ENCODING 80
SWIDTH 472 0
DWIDTH 19 0
BBX 16 35 2 0
BITMAP
FFF0
FFF8
FFFC
FFFE
FFFE
FFFF
FC7F
FC7F
FC7F
FC7F
FC7F
FC7F
FC7F
FC7F
FCFF
FFFF
FFFE
FFFE
FFFE
FFFC
FFF0
FC00
FC00
FC00
FC00
FC00
FC00
FC00
FC00
FC00
FC00
FC00
FC00
FC00
FC00
ENDCHAR
STARTCHAR Q
ENCODING 81
SWIDTH 494 0
DWIDTH 20 0
BBX 18 38 1 -3
BITMAP
07F000
1FFC00
3FFE00
7FFF00
7FFF00
FFFF80
FE3F80
FE3F80
FE3F80
FE3F80
FE3F80
FE3F80
FE3F80
FE3F80
FE3F80
FE3F80
FE3F80
FE3F80
FE3F80
FE3F80
FE3F80
FE3F80
FE3F80
FE3F80
FE3F80
FE3F80
FE3F80
FE3F80
FE3F80
7FFF80
7FFF00
7FFF00
3FFE00
1FFF80
07FFC0
001F80
000780
000300
ENDCHAR
STARTCHAR R
ENCODING 82
SWIDTH 477 0
DWIDTH 19 0
BBX 16 35 2 0
BITMAP
FFF8
FFFC
FFFE
FFFF
FFFF
FFFF
FE7F
FE7F
FE3F
FE3F
FE3F
FE7F
FE7F
FEFF
FFFF
FFFE
FFFC
FFFC
FFFE
FC7F
FC7F
FC7F
FC7F
FC7F
FC7F
FC7F
FC7F
FC7F
FC7F
FC7F
FC7F
FC7F
FC7F
FC7F
FC7F
ENDCHAR
STARTCHAR S
ENCODING 83
SWIDTH 461 0
DWIDTH 18 0
BBX 17 35 1 0
BITMAP
07E000
1FF800
3FFE00
7FFE00
7FFF00
FFFF00
FE7F00
FC7F00
FE7F00
FE7F00
FF0000
FF8000
FFC000
7FE000
7FF000
3FF800
1FFC00
0FFC00
07FE00
03FF00
01FF00
00FF00
FE7F80
FE7F80
FE3F80
FE3F80
FE3F80
FE3F80
FE7F00
FFFF00
7FFF00
7FFE00
3FFE00
1FFC00
07F000
ENDCHAR
STARTCHAR T
ENCODING 84
SWIDTH 396 0
DWIDTH 16 0
BBX 15 35 0 0
BITMAP
FFFE
FFFE
FFFE
FFFE
FFFE
FFFE
FFFE
0FE0
0FE0
0FE0
0FE0
0FE0
0FE0
0FE0
0FE0
0FE0
0FE0
0FE0
0FE0
0FE0
0FE0
0FE0
0FE0
0FE0
0FE0
0FE0
0FE0
0FE0
0FE0
0FE0
0FE0
0FE0
0FE0
0FE0
0FE0
ENDCHAR
STARTCHAR U
ENCODING 85
SWIDTH 474 0
DWIDTH 19 0
BBX 17 35 1 0
BITMAP
FE3F80
FE3F80
FE3F80
FE3F80
FE3F80
FE3F80
FE3F80
FE3F80
FE3F80
FE3F80
FE3F80
FE3F80
FE3F80
FE3F80
FE3F80
FE3F80
FE3F80
FE3F80
FE3F80
FE3F80
FE3F80
FE3F80
FE3F80
FE3F80
FE3F80
FE3F80
FE3F80
FE3F80
FE3F80
7FFF00
7FFF00
7FFF00
3FFE00
1FFC00
07F000
ENDCHAR
STARTCHAR V
ENCODING 86
SWIDTH 469 0
DWIDTH 19 0
BBX 18 35 0 0
BITMAP
FE0FC0
7E0FC0
7E0FC0
7E1FC0
7E1FC0
7F1FC0
7F1FC0
7F1F80
7F1F80
3F1F80
3F1F80
3F1F80
3F1F80
3F3F80
3FBF80
3FBF00
3FBF00
1FBF00
1FBF00
1FBF00
1FBF00
1FBF00
1FBF00
1FBE00
1FFE00
0FFE00
0FFE00
0FFE00
0FFE00
0FFE00
0FFE00
0FFE00
0FFC00
07FC00
07FC00
ENDCHAR
STARTCHAR W
ENCODING 87
SWIDTH 712 0
DWIDTH 28 0
BBX 27 35 1 0
BITMAP
FC3F8FE0
FC3F8FE0
FC3F8FE0
FE3F8FE0
FE3F8FC0
FE3F8FC0
FE3F8FC0
FE7F8FC0
FE7F9FC0
7E7F9FC0
7E7F9FC0
7E7F9FC0
7E7FDFC0
7E7FDFC0
7E7FDF80
7F7FDF80
7F7FDF80
7F7FDF80
7FFFDF80
3FFFDF80
3FFFFF80
3FFBFF80
3FFBFF80
3FFBFF00
3FFBFF00
3FFBFF00
3FF3FF00
3FF3FF00
1FF3FF00
1FF3FF00
1FF3FF00
1FF1FF00
1FF1FE00
1FF1FE00
1FF1FE00
ENDCHAR
STARTCHAR X
ENCODING 88
SWIDTH 484 0
DWIDTH 19 0
BBX 18 35 1 0
BITMAP
FE3F80
7E3F80
7E3F80
7F3F80
7F3F00
7F3F00
7F3F00
3F7F00
3F7F00
3F7E00
3FFE00
3FFE00
3FFE00
1FFE00
1FFE00
1FFC00
1FFC00
1FFC00
1FFE00
1FFE00
3FFE00
3FFE00
3FFE00
3F7F00
3F7F00
7F7F00
7F3F00
7F3F00
7F3F80
7E3F80
FE3F80
FE3F80
FE3F80
FE1FC0
FE1FC0
ENDCHAR
STARTCHAR Y
ENCODING 89
SWIDTH 446 0
DWIDTH 18 0
BBX 18 35 0 0
BITMAP
FE1FC0
7E1F80
7E3F80
7F3F80
7F3F80
7F3F00
3F3F00
3F3F00
3F7F00
3FFE00
1FFE00
1FFE00
1FFE00
1FFE00
0FFC00
0FFC00
0FFC00
0FFC00
07F800
07F800
07F800
07F800
07F000
03F000
03F000
03F000
03F000
03F000
03F000
03F000
03F000
03F000
03F000
03F000
03F000
ENDCHAR
STARTCHAR Z
ENCODING 90
SWIDTH 410 0
DWIDTH 16 0
BBX 15 35 1 0
BITMAP
FFFE
FFFE
FFFE
FFFE
FFFE
FFFE
01FE
01FC
01FC
03F8
03F8
03F8
07F0
07F0
07F0
0FE0
0FE0
0FE0
1FC0
1FC0
1FC0
3F80
3F80
3F80
7F00
7F00
7F00
FE00
FE00
FFFC
FFFC
FFFC
FFFC
FFFC
FFFC
ENDCHAR
STARTCHAR bracketleft
ENCODING 91
SWIDTH 318 0
DWIDTH 13 0
BBX 11 35 1 0
BITMAP
FFE0
FFE0
FFE0
FFE0
FFE0
FE00
FE00
FE00
FE00
FE00
FE00
FE00
FE00
FE00
FE00
FE00
FE00
FE00
FE00
FE00
FE00
FE00
FE00
FE00
FE00
FE00
FE00
FE00
FE00
FE00
FFE0
FFE0
FFE0
FFE0
FFE0
ENDCHAR
STARTCHAR backslash
ENCODING 92
SWIDTH 405 0
DWIDTH 16 0
BBX 15 35 1 0
BITMAP
FE00
FE00
FE00
FE00
7F00
7F00
7F00
7F00
7F80
3F80
3F80
3F80
3F80
1FC0
1FC0
1FC0
1FC0
0FE0
0FE0
0FE0
0FE0
0FF0
07F0
07F0
07F0
07F0
03F8
03F8
03F8
03F8
01FC
01FC
01FC
01FC
01FE
ENDCHAR
STARTCHAR bracketright
ENCODING 93
SWIDTH 318 0
DWIDTH 13 0
BBX 11 35 1 0
BITMAP
FFE0
FFE0
FFE0
FFE0
FFE0
0FE0
0FE0
0FE0
0FE0
0FE0
0FE0
0FE0
0FE0
0FE0
0FE0
0FE0
0FE0
0FE0
0FE0
0FE0
0FE0
0FE0
0FE0
0FE0
0FE0
0FE0
0FE0
0FE0
0FE0
0FE0
FFE0
FFE0
FFE0
FFE0
FFE0
ENDCHAR
STARTCHAR asciicircum
ENCODING 94
SWIDTH 474 0
DWIDTH 19 0
BBX 17 18 1 9
BITMAP
0FF800
0FF800
0FF800
0FF800
1FFC00
1FFC00
1FFC00
1F7C00
3F7E00
3F7E00
3F7E00
7F7E00
7F7F00
7E7F00
7E3F00
FE3F00
FE3F80
FE3F80
ENDCHAR
STARTCHAR underscore
ENCODING 95
SWIDTH 365 0
DWIDTH 15 0
BBX 13 5 1 -7
BITMAP
FFF8
FFF8
FFF8
FFF8
FFF8
ENDCHAR
STARTCHAR grave
ENCODING 96
SWIDTH 317 0
DWIDTH 13 0
BBX 9 9 1 30
BITMAP
8000
E000
FC00
FF00
FF80
FF80
FF80
0F80
0080
ENDCHAR
STARTCHAR a
ENCODING 97
SWIDTH 483 0
DWIDTH 19 0
BBX 17 30 1 0
BITMAP
07F000
1FFC00
3FFE00
7FFF00
7FFF80
FF7F80
FE3F80
FE3F80
FE3F80
003F80
003F80
00FF80
07FF80
1FFF80
3FBF80
7F3F80
7E3F80
FE3F80
FE3F80
FE3F80
FE3F80
FE3F80
FE3F80
FE3F80
FF7F80
FFFF80
FFFF80
7FFF80
3FBF80
1F3F80
ENDCHAR
STARTCHAR b
ENCODING 98
SWIDTH 501 0
DWIDTH 20 0
BBX 18 35 1 0
BITMAP
FF0000
FF0000
FF0000
FF0000
FF0000
FF7C00
FFFF00
FFFF80
FFFF80
FFFFC0
FFFFC0
FF1FC0
FF1FC0
FF1FC0
FF1FC0
FF1FC0
FF1FC0
FF1FC0
FF1FC0
FF1FC0
FF1FC0
FF1FC0
FF1FC0
FF1FC0
FF1FC0
FF1FC0
FF1FC0
FF1FC0
FF1FC0
FFFFC0
FFFF80
FFFF80
FFFF80
FF7F00
FF3C00
ENDCHAR
STARTCHAR c
ENCODING 99
SWIDTH 491 0
DWIDTH 20 0
BBX 18 30 1 0
BITMAP
07F800
1FFE00
3FFF00
3FFF80
7FFF80
7FFF80
7E3FC0
FE3FC0
FE3FC0
FE3FC0
FE3FC0
FE3FC0
FE0000
FE0000
FE0000
FE0000
FE0000
FE3FC0
FE3FC0
FE1FC0
FE1FC0
FE1FC0
FE3FC0
FE3FC0
7FFF80
7FFF80
3FFF80
3FFF00
1FFE00
03F800
ENDCHAR
STARTCHAR d
ENCODING 100
SWIDTH 498 0
DWIDTH 20 0
BBX 18 35 1 0
BITMAP
001FC0
001FC0
001FC0
001FC0
001FC0
0F9FC0
3FDFC0
7FFFC0
7FFFC0
7FFFC0
FFFFC0
FE3FC0
FE3FC0
FE1FC0
FE1FC0
FE1FC0
FE1FC0
FE1FC0
FE1FC0
FE1FC0
FE1FC0
FE1FC0
FE1FC0
FE1FC0
FE1FC0
FE1FC0
FE3FC0
FE3FC0
FF3FC0
FFFFC0
7FFFC0
7FFFC0
7FDFC0
3FDFC0
1F1FC0
ENDCHAR
STARTCHAR e
ENCODING 101
SWIDTH 488 0
DWIDTH 20 0
BBX 17 30 1 0
BITMAP
07F800
1FFE00
3FFF00
7FFF00
7FFF80
FFFF80
FE3F80
FE3F80
FE3F80
FE3F80
FE3F80
FE3F80
FFFF80
FFFF80
FFFF80
FFFF80
FE0000
FE0000
FE0000
FE3F80
FE3F80
FE3F80
FE3F80
FE3F80
7FFF80
7FFF80
7FFF00
3FFF00
1FFC00
07F000
ENDCHAR
STARTCHAR f
ENCODING 102
SWIDTH 280 0
DWIDTH 11 0
BBX 9 35 1 0
BITMAP
1F80
3F80
7F80
7F80
7F80
7F00
7F00
FF80
FF80
FF80
FF80
FF80
7F00
7F00
7F00
7F00
7F00
7F00
7F00
7F00
7F00
7F00
7F00
7F00
7F00
7F00
7F00
7F00
7F00
7F00
7F00
7F00
7F00
7F00
7F00
ENDCHAR
STARTCHAR g
ENCODING 103
SWIDTH 504 0
DWIDTH 20 0
BBX 18 35 1 -5
BITMAP
0F9FC0
3FDFC0
7FDFC0
7FFFC0
7FFFC0
7F3FC0
FF3FC0
FE1FC0
FE1FC0
FE1FC0
FE1FC0
FE1FC0
FE1FC0
FE1FC0
FE1FC0
FE1FC0
FE1FC0
FE1FC0
FE1FC0
FE1FC0
FF3FC0
7F3FC0
7FFFC0
7FFFC0
7FFFC0
3FDFC0
1F9FC0
003FC0
203FC0
3EFF80
7FFF80
FFFF80
FFFF00
7FFE00
0FF000
ENDCHAR
STARTCHAR h
ENCODING 104
SWIDTH 505 0
DWIDTH 20 0
BBX 18 35 1 0
BITMAP
FF0000
FF0000
FF0000
FF0000
FF0000
FF3C00
FF7F00
FFFF80
FFFF80
FFFFC0
FFFFC0
FF1FC0
FF1FC0
FF1FC0
FF1FC0
FF1FC0
FF1FC0
FF1FC0
FF1FC0
FF1FC0
FF1FC0
FF1FC0
FF1FC0
FF1FC0
FF1FC0
FF1FC0
FF1FC0
FF1FC0
FF1FC0
FF1FC0
FF1FC0
FF1FC0
FF1FC0
FF1FC0
FF1FC0
ENDCHAR
STARTCHAR i
ENCODING 105
SWIDTH 243 0
DWIDTH 10 0
BBX 7 37 1 0
BITMAP
FE
FE
FE
FE
FE
00
00
FE
FE
FE
FE
FE
FE
FE
FE
FE
FE
FE
FE
FE
FE
FE
FE
FE
FE
FE
FE
FE
FE
FE
FE
FE
FE
FE
FE
FE
FE
ENDCHAR
STARTCHAR j
ENCODING 106
SWIDTH 263 0
DWIDTH 11 0
BBX 8 40 1 -3
BITMAP
7F
7F
7F
7F
7F
00
00
7F
7F
7F
7F
7F
7F
7F
7F
7F
7F
7F
7F
7F
7F
7F
7F
7F
7F
7F
7F
7F
7F
7F
7F
7F
7F
7F
7F
FF
FF
FF
FE
FC
ENDCHAR
STARTCHAR k
ENCODING 107
SWIDTH 491 0
DWIDTH 20 0
BBX 19 35 1 0
BITMAP
FE0000
FE0000
FE0000
FE0000
FE0000
FE1FC0
FE3F80
FE3F80
FE3F80
FE7F00
FE7F00
FE7F00
FEFE00
FEFE00
FEFE00
FFFC00
FFFC00
FFFC00
FFFC00
FFFC00
FFFC00
FFFE00
FEFE00
FEFE00
FEFF00
FE7F00
FE7F00
FE7F80
FE3F80
FE3F80
FE3FC0
FE1FC0
FE1FC0
FE1FE0
FE0FE0
ENDCHAR
STARTCHAR l
ENCODING 108
SWIDTH 248 0
DWIDTH 10 0
BBX 8 35 1 0
BITMAP
FF
FF
FF
FF
FF
FF
FF
FF
FF
FF
FF
FF
FF
FF
FF
FF
FF
FF
FF
FF
FF
FF
FF
FF
FF
FF
FF
FF
FF
FF
FF
FF
FF
FF
FF
ENDCHAR
STARTCHAR m
ENCODING 109
SWIDTH 758 0
DWIDTH 30 0
BBX 28 30 1 0
BITMAP
FE3E1F80
FEFF3FC0
FEFFFFE0
FFFFFFE0
FFFFFFF0
FFFFEFF0
FF3FC7F0
FE1FC7F0
FE1FC7F0
FE1FC7F0
FE1FC7F0
FE1FC7F0
FE1FC7F0
FE1FC7F0
FE1FC7F0
FE1FC7F0
FE1FC7F0
FE1FC7F0
FE1FC7F0
FE1FC7F0
FE1FC7F0
FE1FC7F0
FE1FC7F0
FE1FC7F0
FE1FC7F0
FE1FC7F0
FE1FC7F0
FE1FC7F0
FE1FC7F0
FE1FC7F0
ENDCHAR
STARTCHAR n
ENCODING 110
SWIDTH 499 0
DWIDTH 20 0
BBX 18 30 1 0
BITMAP
FE3C00
FE7F00
FEFF80
FFFF80
FFFF80
FF3FC0
FF1FC0
FE1FC0
FE1FC0
FE1FC0
FE1FC0
FE1FC0
FE1FC0
FE1FC0
FE1FC0
FE1FC0
FE1FC0
FE1FC0
FE1FC0
FE1FC0
FE1FC0
FE1FC0
FE1FC0
FE1FC0
FE1FC0
FE1FC0
FE1FC0
FE1FC0
FE1FC0
FE1FC0
ENDCHAR
STARTCHAR o
ENCODING 111
SWIDTH 497 0
DWIDTH 20 0
BBX 18 30 1 0
BITMAP
03F000
0FFC00
3FFE00
3FFF00
7FFF80
7FFF80
FF3F80
FE1FC0
FE1FC0
FE1FC0
FE1FC0
FE1FC0
FE1FC0
FE1FC0
FE1FC0
FE1FC0
FE1FC0
FE1FC0
FE1FC0
FE1FC0
FE1FC0
FE1FC0
FE1FC0
FE3F80
7FFF80
7FFF80
7FFF00
3FFF00
1FFE00
07F800
ENDCHAR
STARTCHAR p
ENCODING 112
SWIDTH 500 0
DWIDTH 20 0
BBX 18 36 1 -6
BITMAP
FF7C00
FFFF00
FFFF80
FFFF80
FFFF80
FFFFC0
FF3FC0
FF1FC0
FF1FC0
FF1FC0
FF1FC0
FF1FC0
FF1FC0
FF1FC0
FF1FC0
FF1FC0
FF1FC0
FF1FC0
FF1FC0
FF1FC0
FF1FC0
FF1FC0
FF1FC0
FF3FC0
FFFF80
FFFF80
FFFF80
FFFF80
FFFF00
FF7C00
FF0000
FF0000
FF0000
FF0000
FF0000
FF0000
ENDCHAR
STARTCHAR q
ENCODING 113
SWIDTH 500 0
DWIDTH 20 0
BBX 18 36 1 -6
BITMAP
0FBFC0
3FFFC0
7FFFC0
7FFFC0
7FFFC0
FFFFC0
FE3FC0
FE3FC0
FE3FC0
FE3FC0
FE3FC0
FE3FC0
FE3FC0
FE3FC0
FE3FC0
FE3FC0
FE3FC0
FE3FC0
FE3FC0
FE3FC0
FE3FC0
FE3FC0
FE3FC0
FE3FC0
FFFFC0
7FFFC0
7FFFC0
7FFFC0
3FFFC0
1FBFC0
003FC0
003FC0
003FC0
003FC0
003FC0
003FC0
ENDCHAR
STARTCHAR r
ENCODING 114
SWIDTH 344 0
DWIDTH 14 0
BBX 12 30 1 0
BITMAP
FE30
FEF0
FEF0
FFF0
FFF0
FFF0
FF00
FE00
FE00
FE00
FE00
FE00
FE00
FE00
FE00
FE00
FE00
FE00
FE00
FE00
FE00
FE00
FE00
FE00
FE00
FE00
FE00
FE00
FE00
FE00
ENDCHAR
STARTCHAR s
ENCODING 115
SWIDTH 475 0
DWIDTH 19 0
BBX 17 30 1 0
BITMAP
07F000
1FFC00
3FFE00
7FFF00
FFFF00
FFFF80
FE3F80
FE3F80
FE3F80
FF0000
FF8000
7FE000
7FF000
3FF800
1FFE00
07FE00
03FF00
01FF80
00FF80
FE7F80
FE3F80
FE3F80
FE3F80
FE3F80
FF7F80
FFFF00
7FFF00
3FFE00
1FFC00
07F000
ENDCHAR
STARTCHAR t
ENCODING 116
SWIDTH 305 0
DWIDTH 12 0
BBX 10 35 1 0
BITMAP
3F00
3F00
3F00
3F00
3F00
3F00
FFC0
FFC0
FFC0
FFC0
FFC0
3F00
3F00
3F00
3F00
3F00
3F00
3F00
3F00
3F00
3F00
3F00
3F00
3F00
3F00
3F00
3F00
3F00
3F00
3F80
3FC0
3FC0
3FC0
3FC0
0FC0
ENDCHAR
STARTCHAR u
ENCODING 117
SWIDTH 499 0
DWIDTH 20 0
BBX 18 30 1 0
BITMAP
FE1FC0
FE1FC0
FE1FC0
FE1FC0
FE1FC0
FE1FC0
FE1FC0
FE1FC0
FE1FC0
FE1FC0
FE1FC0
FE1FC0
FE1FC0
FE1FC0
FE1FC0
FE1FC0
FE1FC0
FE1FC0
FE1FC0
FE1FC0
FE1FC0
FE1FC0
FE3FC0
FE3FC0
FF3FC0
7FFFC0
7FFFC0
7FDFC0
3FDFC0
1F1FC0
ENDCHAR
STARTCHAR v
ENCODING 118
SWIDTH 461 0
DWIDTH 18 0
BBX 18 30 0 0
BITMAP
FE1FC0
7F1FC0
7F1FC0
7F1F80
7F1F80
7F3F80
7F3F80
3F3F80
3F3F80
3F3F80
3F3F00
3FBF00
3FBF00
1FBF00
1FFF00
1FFF00
1FFE00
1FFE00
1FFE00
1FFE00
0FFE00
0FFE00
0FFC00
0FFC00
0FFC00
0FFC00
07FC00
07FC00
07F800
07F800
ENDCHAR
STARTCHAR w
ENCODING 119
SWIDTH 696 0
DWIDTH 28 0
BBX 26 30 1 0
BITMAP
FC7F1FC0
FC7F1FC0
FC7F1FC0
FC7F1F80
FC7F1F80
7E7F1F80
7E7F1F80
7E7F9F80
7E7FBF80
7E7FBF80
7EFFBF80
7EFFBF00
7EFFBF00
3FFFBF00
3FFFBF00
3FFFFF00
3FFFFF00
3FFBFF00
3FFBFF00
3FF3FE00
3FF3FE00
3FF3FE00
1FF3FE00
1FF3FE00
1FF3FE00
1FF1FE00
1FF1FE00
1FF1FC00
1FE1FC00
1FE1FC00
ENDCHAR
STARTCHAR x
ENCODING 120
SWIDTH 459 0
DWIDTH 18 0
BBX 18 30 0 0
BITMAP
7F07C0
7F0F80
3F8F80
3F8F80
3F9F00
1FDF00
1FDF00
1FFE00
0FFE00
0FFE00
0FFC00
07FC00
07FC00
07F800
07F800
07F800
07F800
0FFC00
0FFC00
0FFE00
1FFE00
1FFE00
1F7F00
3F7F00
3E7F00
3E3F80
7E3F80
7C3F80
7C1FC0
FC1FC0
ENDCHAR
STARTCHAR y
ENCODING 121
SWIDTH 461 0
DWIDTH 18 0
BBX 18 35 0 -5
BITMAP
FE1FC0
7E1FC0
7E1FC0
7E1F80
7E1F80
7E1F80
7F1F80
7F3F80
3F3F80
3F3F00
3F3F00
3F3F00
3F3F00
3F3F00
1F3F00
1F3E00
1F3E00
1FFE00
1FFE00
1FFE00
0FFC00
0FFC00
0FFC00
0FFC00
0FFC00
0FFC00
0FF800
07F800
07F800
07F800
7FF800
7FF800
7FF000
7FF000
7FE000
ENDCHAR
STARTCHAR z
ENCODING 122
SWIDTH 386 0
DWIDTH 15 0
BBX 14 30 1 0
BITMAP
FFFC
FFFC
FFFC
FFFC
FFFC
01FC
03F8
03F8
03F8
07F0
07F0
07F0
0FE0
0FE0
0FE0
1FC0
1FC0
3FC0
3F80
3F80
7F80
7F00
7F00
FF00
FE00
FFFC
FFFC
FFFC
FFFC
FFFC
ENDCHAR
STARTCHAR braceleft
ENCODING 123
SWIDTH 340 0
DWIDTH 14 0
BBX 12 40 1 -4
BITMAP
0010
07F0
0FF0
1FF0
1FF0
3FF0
3FC0
3F80
3F80
3F80
3F80
3F80
3F80
3F80
3F80
3F80
3F80
3F80
FF00
FE00
FC00
FF00
7F00
3F80
3F80
3F80
3F80
3F80
3F80
3F80
3F80
3F80
3F80
3F80
3FF0
1FF0
1FF0
1FF0
0FF0
01F0
ENDCHAR
STARTCHAR bar
ENCODING 124
SWIDTH 216 0
DWIDTH 9 0
BBX 6 40 1 -2
BITMAP
FC
FC
FC
FC
FC
FC
FC
FC
FC
FC
FC
FC
FC
FC
FC
FC
FC
FC
FC
FC
FC
FC
FC
FC
FC
FC
FC
FC
FC
FC
FC
FC
FC
FC
FC
FC
FC
FC
FC
FC
ENDCHAR
STARTCHAR braceright
ENCODING 125
SWIDTH 340 0
DWIDTH 14 0
BBX 12 40 1 -4
BITMAP
8000
FC00
FF00
FF80
FF80
FF80
3F80
3F80
3F80
3F80
3F80
3F80
3F80
3F80
3F80
1F80
1FC0
1FC0
0FF0
07F0
03F0
0FF0
1FE0
1FC0
1F80
3F80
3F80
3F80
3F80
3F80
3F80
3F80
3F80
3F80
FF80
FF80
FF80
FF00
FE00
F800
ENDCHAR
STARTCHAR degree
ENCODING 176
SWIDTH 389 0
DWIDTH 16 0
BBX 14 14 1 18
BITMAP
0FC0
3FE0
7FF0
7FF8
F8F8
F07C
F03C
F03C
F07C
F8F8
7FF8
7FF0
3FE0
0FC0
ENDCHAR
ENDFONT
